<mxfile host="app.diagrams.net" agent="Mozilla/5.0 (Windows NT 10.0; Win64; x64) AppleWebKit/537.36 (KHTML, like Gecko) Chrome/129.0.0.0 Safari/537.36" version="24.8.0">
  <diagram name="Сторінка-1" id="MoUU1_B2GxgnrEoQ47cC">
    <mxGraphModel grid="1" page="1" gridSize="10" guides="1" tooltips="1" connect="1" arrows="1" fold="1" pageScale="1" pageWidth="827" pageHeight="1169" math="0" shadow="0">
      <root>
        <mxCell id="0" />
        <mxCell id="1" parent="0" />
        <mxCell id="Y_KWm7oFzZBSpr-Bk9CA-2" style="edgeStyle=orthogonalEdgeStyle;rounded=0;orthogonalLoop=1;jettySize=auto;html=1;" edge="1" parent="1" source="Y_KWm7oFzZBSpr-Bk9CA-1" target="Y_KWm7oFzZBSpr-Bk9CA-3">
          <mxGeometry relative="1" as="geometry">
            <mxPoint x="340" y="270" as="targetPoint" />
          </mxGeometry>
        </mxCell>
        <mxCell id="Y_KWm7oFzZBSpr-Bk9CA-1" value="Start" style="ellipse;whiteSpace=wrap;html=1;fillColor=#d5e8d4;strokeColor=#82b366;" vertex="1" parent="1">
          <mxGeometry x="280" y="90" width="120" height="80" as="geometry" />
        </mxCell>
        <mxCell id="Y_KWm7oFzZBSpr-Bk9CA-4" style="edgeStyle=orthogonalEdgeStyle;rounded=0;orthogonalLoop=1;jettySize=auto;html=1;" edge="1" parent="1" source="Y_KWm7oFzZBSpr-Bk9CA-3" target="Y_KWm7oFzZBSpr-Bk9CA-5">
          <mxGeometry relative="1" as="geometry">
            <mxPoint x="340" y="370" as="targetPoint" />
          </mxGeometry>
        </mxCell>
        <mxCell id="Y_KWm7oFzZBSpr-Bk9CA-3" value="int mar,sof,petr" style="rounded=0;whiteSpace=wrap;html=1;" vertex="1" parent="1">
          <mxGeometry x="280" y="240" width="120" height="60" as="geometry" />
        </mxCell>
        <mxCell id="Y_KWm7oFzZBSpr-Bk9CA-6" style="edgeStyle=orthogonalEdgeStyle;rounded=0;orthogonalLoop=1;jettySize=auto;html=1;" edge="1" parent="1" source="Y_KWm7oFzZBSpr-Bk9CA-5" target="Y_KWm7oFzZBSpr-Bk9CA-7">
          <mxGeometry relative="1" as="geometry">
            <mxPoint x="340" y="500" as="targetPoint" />
          </mxGeometry>
        </mxCell>
        <mxCell id="Y_KWm7oFzZBSpr-Bk9CA-5" value="cin mar,sof,petr" style="shape=parallelogram;perimeter=parallelogramPerimeter;whiteSpace=wrap;html=1;fixedSize=1;" vertex="1" parent="1">
          <mxGeometry x="280" y="340" width="120" height="60" as="geometry" />
        </mxCell>
        <mxCell id="Y_KWm7oFzZBSpr-Bk9CA-8" style="edgeStyle=orthogonalEdgeStyle;rounded=0;orthogonalLoop=1;jettySize=auto;html=1;" edge="1" parent="1" source="Y_KWm7oFzZBSpr-Bk9CA-7" target="Y_KWm7oFzZBSpr-Bk9CA-10">
          <mxGeometry relative="1" as="geometry">
            <mxPoint x="130" y="530" as="targetPoint" />
            <Array as="points">
              <mxPoint x="165" y="530" />
              <mxPoint x="165" y="620" />
            </Array>
          </mxGeometry>
        </mxCell>
        <mxCell id="Y_KWm7oFzZBSpr-Bk9CA-17" style="edgeStyle=orthogonalEdgeStyle;rounded=0;orthogonalLoop=1;jettySize=auto;html=1;" edge="1" parent="1" source="Y_KWm7oFzZBSpr-Bk9CA-7" target="Y_KWm7oFzZBSpr-Bk9CA-18">
          <mxGeometry relative="1" as="geometry">
            <mxPoint x="560" y="530" as="targetPoint" />
          </mxGeometry>
        </mxCell>
        <mxCell id="Y_KWm7oFzZBSpr-Bk9CA-19" value="Ні" style="edgeLabel;html=1;align=center;verticalAlign=middle;resizable=0;points=[];" connectable="0" vertex="1" parent="Y_KWm7oFzZBSpr-Bk9CA-17">
          <mxGeometry x="-0.7497" y="-3" relative="1" as="geometry">
            <mxPoint as="offset" />
          </mxGeometry>
        </mxCell>
        <mxCell id="Y_KWm7oFzZBSpr-Bk9CA-7" value="mar &amp;gt;= 1 &amp;amp;&amp;amp; mar &amp;lt;= 1e9 &amp;amp;&amp;amp; sof &amp;gt;= 1 &amp;amp;&amp;amp; sof &amp;lt;= 1e9 &amp;amp;&amp;amp; petr &amp;gt;= 1 &amp;amp;&amp;amp; petr &amp;lt;= 1e9" style="rhombus;whiteSpace=wrap;html=1;" vertex="1" parent="1">
          <mxGeometry x="220" y="440" width="240" height="180" as="geometry" />
        </mxCell>
        <mxCell id="Y_KWm7oFzZBSpr-Bk9CA-9" value="Так" style="text;html=1;align=center;verticalAlign=middle;resizable=0;points=[];autosize=1;strokeColor=none;fillColor=none;" vertex="1" parent="1">
          <mxGeometry x="160" y="510" width="40" height="30" as="geometry" />
        </mxCell>
        <mxCell id="Y_KWm7oFzZBSpr-Bk9CA-11" style="edgeStyle=orthogonalEdgeStyle;rounded=0;orthogonalLoop=1;jettySize=auto;html=1;" edge="1" parent="1" source="Y_KWm7oFzZBSpr-Bk9CA-10" target="Y_KWm7oFzZBSpr-Bk9CA-12">
          <mxGeometry relative="1" as="geometry">
            <mxPoint x="-60" y="650" as="targetPoint" />
          </mxGeometry>
        </mxCell>
        <mxCell id="Y_KWm7oFzZBSpr-Bk9CA-13" value="Так" style="edgeLabel;html=1;align=center;verticalAlign=middle;resizable=0;points=[];" connectable="0" vertex="1" parent="Y_KWm7oFzZBSpr-Bk9CA-11">
          <mxGeometry x="0.1059" relative="1" as="geometry">
            <mxPoint as="offset" />
          </mxGeometry>
        </mxCell>
        <mxCell id="Y_KWm7oFzZBSpr-Bk9CA-14" style="edgeStyle=orthogonalEdgeStyle;rounded=0;orthogonalLoop=1;jettySize=auto;html=1;" edge="1" parent="1" source="Y_KWm7oFzZBSpr-Bk9CA-10" target="Y_KWm7oFzZBSpr-Bk9CA-16">
          <mxGeometry relative="1" as="geometry">
            <mxPoint x="220" y="650" as="targetPoint" />
          </mxGeometry>
        </mxCell>
        <mxCell id="Y_KWm7oFzZBSpr-Bk9CA-15" value="Ні" style="edgeLabel;html=1;align=center;verticalAlign=middle;resizable=0;points=[];" connectable="0" vertex="1" parent="Y_KWm7oFzZBSpr-Bk9CA-14">
          <mxGeometry x="-0.2588" y="-2" relative="1" as="geometry">
            <mxPoint as="offset" />
          </mxGeometry>
        </mxCell>
        <mxCell id="Y_KWm7oFzZBSpr-Bk9CA-10" value="(mar + sof) &gt; petr" style="rhombus;whiteSpace=wrap;html=1;" vertex="1" parent="1">
          <mxGeometry x="10" y="600" width="100" height="100" as="geometry" />
        </mxCell>
        <mxCell id="Y_KWm7oFzZBSpr-Bk9CA-21" style="edgeStyle=orthogonalEdgeStyle;rounded=0;orthogonalLoop=1;jettySize=auto;html=1;entryX=0;entryY=0.5;entryDx=0;entryDy=0;" edge="1" parent="1" source="Y_KWm7oFzZBSpr-Bk9CA-12" target="Y_KWm7oFzZBSpr-Bk9CA-18">
          <mxGeometry relative="1" as="geometry">
            <mxPoint x="-97.14285714285714" y="900" as="targetPoint" />
            <Array as="points">
              <mxPoint x="-100" y="880" />
            </Array>
          </mxGeometry>
        </mxCell>
        <mxCell id="Y_KWm7oFzZBSpr-Bk9CA-12" value="YES" style="shape=parallelogram;perimeter=parallelogramPerimeter;whiteSpace=wrap;html=1;fixedSize=1;" vertex="1" parent="1">
          <mxGeometry x="-160" y="620" width="120" height="60" as="geometry" />
        </mxCell>
        <mxCell id="Y_KWm7oFzZBSpr-Bk9CA-16" value="NO&amp;nbsp;" style="shape=parallelogram;perimeter=parallelogramPerimeter;whiteSpace=wrap;html=1;fixedSize=1;" vertex="1" parent="1">
          <mxGeometry x="190" y="620" width="120" height="60" as="geometry" />
        </mxCell>
        <mxCell id="Y_KWm7oFzZBSpr-Bk9CA-18" value="End" style="ellipse;whiteSpace=wrap;html=1;fillColor=#f8cecc;strokeColor=#b85450;" vertex="1" parent="1">
          <mxGeometry x="550" y="840" width="120" height="80" as="geometry" />
        </mxCell>
        <mxCell id="Y_KWm7oFzZBSpr-Bk9CA-24" style="edgeStyle=orthogonalEdgeStyle;rounded=0;orthogonalLoop=1;jettySize=auto;html=1;entryX=0.245;entryY=0.128;entryDx=0;entryDy=0;entryPerimeter=0;" edge="1" parent="1" source="Y_KWm7oFzZBSpr-Bk9CA-16" target="Y_KWm7oFzZBSpr-Bk9CA-18">
          <mxGeometry relative="1" as="geometry" />
        </mxCell>
      </root>
    </mxGraphModel>
  </diagram>
</mxfile>
